<svg xmlns="http://www.w3.org/2000/svg" version="1.1" width="151" height="121"><path d="M0 0 C49.83 0 99.66 0 151 0 C151 39.27 151 78.54 151 119 C101.17 119 51.34 119 0 119 C0 79.73 0 40.46 0 0 Z " fill="transparent"/><path d="M0 0 C4.5173131 2.02141472 9.1745789 3.51374382 13.92919922 4.86328125 C15.50894531 5.311875 15.50894531 5.311875 17.12060547 5.76953125 C37.37022902 10.65659124 59.56193757 9.87201307 77.75732422 -0.76953125 C79.49824405 -1.86543402 81.21755937 -2.99562552 82.92919922 -4.13671875 C77.31428165 10.61876231 66.71132312 22.82632154 52.42919922 29.61328125 C38.10748783 35.71472268 23.83799913 35.24341962 9.33935547 29.421875 C3.25657442 26.73420923 -2.55435407 23.63160824 -8.31103516 20.30883789 C-22.98659819 11.84203391 -37.28009364 9.07368453 -54.07080078 13.36328125 C-54.97830078 13.64171875 -55.88580078 13.92015625 -56.82080078 14.20703125 C-59.07080078 14.86328125 -59.07080078 14.86328125 -62.07080078 14.86328125 C-60.54239941 10.5837574 -57.34181157 8.49457281 -53.75830078 5.98828125 C-53.14108154 5.55136963 -52.5238623 5.11445801 -51.88793945 4.66430664 C-34.02761783 -7.628158 -19.26695652 -8.84832589 0 0 Z " fill="#499783" transform="translate(63.07080078125,8.136719)"/><path d="M0 0 C5.01791684 2.41935276 8.49958655 5.9991731 11 11 C11.55713132 16.95701945 11.52180186 21.95208399 8 27 C3.21772406 31.5743509 -0.31022506 33.7396992 -6.875 34.375 C-12.10338467 34.21745922 -15.83087628 32.14670384 -19.51171875 28.50390625 C-23.64736846 23.75205658 -24.41393097 20.20896454 -24 14 C-22.17060216 7.86613665 -19.05912736 4.63281916 -14 1 C-9.81634937 -1.09182531 -4.55592381 -0.42935408 0 0 Z " fill="#735D90" transform="translate(121,48)"/><path d="M0 0 C6.96036112 4.80596363 6.96036112 4.80596363 8.2421875 8.67578125 C9.40263873 15.15299371 9.3650287 21.31835952 6.0078125 27.1171875 C2.83869309 31.00249209 -1.03639526 32.46604004 -5.90625 33.1875 C-11.58291484 33.46107421 -15.00597936 32.68504102 -19.375 28.8125 C-19.93445313 28.34972656 -20.49390625 27.88695313 -21.0703125 27.41015625 C-24.77343811 23.88788096 -25.85449971 20.98230312 -26.125 15.875 C-25.74276372 8.43537681 -22.48471467 4.6556677 -17.1875 -0.1875 C-11.53224715 -2.19825657 -5.62524878 -1.9792542 0 0 Z " fill="#735D90" transform="translate(102.375,85.1875)"/><path d="M0 0 C5.07478586 4.82723533 6.80209201 8.45429628 7.125 15.375 C6.9063545 21.19825856 5.60867476 25.1976796 1.5625 29.4375 C-1.68363282 32.1516063 -4.69911573 33.34520197 -8.9375 33.875 C-15.87411676 33.0079229 -19.85757922 30.54222489 -24.17578125 25.25390625 C-27.2653676 20.80604974 -28.37268869 16.86159437 -27.4375 11.4375 C-25.29651603 6.03027071 -21.81673245 2.11600109 -16.75 -0.71484375 C-11.02265145 -2.81422658 -5.49751734 -2.49887152 0 0 Z " fill="#735D90" transform="translate(83.4375,49.5625)"/></svg>